<?xml version="1.0" standalone="no"?><!DOCTYPE svg PUBLIC "-//W3C//DTD SVG 1.1//EN" "http://www.w3.org/Graphics/SVG/1.1/DTD/svg11.dtd"><svg t="1587173904202" class="icon" viewBox="0 0 2050 1024" version="1.1" xmlns="http://www.w3.org/2000/svg" p-id="3815" xmlns:xlink="http://www.w3.org/1999/xlink" width="32.03125" height="16"><defs><style type="text/css"></style></defs><path d="M1104.62891 331.093c-6.827 10.24-17.067 10.24-17.067 10.24H855.45591v-40.96h252.586s3.414 23.894-3.413 30.72z m406.187 20.48c10.24-6.826 10.24-17.066 10.24-17.066V75.093h-40.96v279.894c-3.414 0 20.48 3.413 30.72-3.414z m58.026 27.307h-269.653s0 23.893 6.827 34.133c6.826 10.24 17.066 10.24 17.066 10.24h228.694s10.24 0 17.066-10.24V378.88z m-750.933 0H708.68191V112.64h109.227V71.68h-348.16v40.96h105.813v262.827H469.74891v40.96h324.267s10.24 0 13.653-10.24c10.24-3.414 10.24-27.307 10.24-27.307zM619.93591 112.64h44.373v262.827h-44.373V112.64z" p-id="3816"></path><path d="M548.25591 341.333H503.88091l-20.48-180.906h44.374z m245.76-34.133c0 10.24-6.827 34.133-6.827 34.133h-47.787s6.827-34.133 10.24-44.373l13.654-136.533h47.786c-3.413 0-13.653 112.64-17.066 146.773z m498.346-146.773c-6.826-6.827-13.653-6.827-13.653-6.827h-44.373v51.2h23.893v218.453h20.48s10.24 0 17.067-10.24c3.413-6.826 6.826-23.893 6.826-23.893V180.907s0-10.24-10.24-20.48z m-98.986 85.333c-3.414-13.653-13.654-23.893-30.72-23.893h-10.24l27.306-116.054s3.414-13.653-10.24-27.306c-3.413-3.414-6.826-3.414-13.653-6.827H865.69591v40.96h262.826l-23.893 109.227H937.37591l3.413-17.067 17.067-54.613h-51.2l-20.48 75.093c0 3.413-3.414 6.827-3.414 10.24 0 17.067 13.654 30.72 30.72 30.72h215.04c10.24 0 20.48 6.827 20.48 17.067v92.16h-194.56v40.96h218.454c13.653 0 23.893-10.24 23.893-23.894V252.587c-3.413-3.414-3.413-3.414-3.413-6.827z m85.333-170.667h-34.133c-6.827 3.414-10.24 10.24-10.24 20.48 0 13.654 10.24 27.307 27.306 27.307 13.654 0 27.307-10.24 27.307-27.307 0-10.24-6.827-17.066-10.24-20.48z m150.187 37.547c3.413 0 3.413-3.413 0 0z" p-id="3817"></path><path d="M1435.72191 98.987c0-13.654-10.24-23.894-23.893-23.894h-98.987v30.72h64.854l-6.827 10.24-23.893 34.134v44.373h-34.134v37.547h34.134v88.746h-27.307v40.96h34.133c13.654 0 23.894-10.24 23.894-23.893v-102.4H1405.00091v-37.547h-27.306v-20.48l47.786-64.853s0-3.413 3.414-3.413v-3.414c6.826 0 6.826-3.413 6.826-6.826z m13.654 228.693h-27.307l10.24-177.493h27.307z m98.986 0h27.307l-10.24-177.493h-30.72z m-546.133 208.213h-95.573V481.28h180.906v47.787L991.98891 665.6s37.547 3.413 51.2 6.827c20.48 6.826 47.787 17.066 47.787 17.066v54.614s-61.44-20.48-95.574-20.48c-40.96 0-98.986 20.48-98.986 20.48V686.08l105.813-150.187zM1599.56191 730.453a23.893 23.893 0 1 0 47.787 0 23.893 23.893 0 1 0-47.787 0zM237.64191 706.56l-23.893-23.893V532.48c0-30.72-54.613-58.027-95.573-58.027-58.027 0-105.814 40.96-109.227 88.747h61.44c6.827-20.48 20.48-34.133 40.96-34.133s37.547 13.653 37.547 34.133v23.893H94.28091c-13.653 0-23.893 3.414-37.546 6.827-44.374 20.48-68.267 71.68-51.2 112.64 17.066 40.96 71.68 58.027 116.053 37.547 13.653-6.827 23.893-13.654 30.72-23.894l34.133 34.134 51.2-47.787z m-153.6-10.24c-13.653-13.653-10.24-40.96 6.827-61.44 3.413-3.413 10.24-10.24 20.48-10.24h37.547v58.027c0 3.413-3.414 3.413-3.414 6.826-20.48 17.067-47.786 20.48-61.44 6.827z m791.894 10.24l-23.894-23.893V532.48c0-30.72-54.613-58.027-95.573-58.027-58.027 0-105.813 40.96-109.227 88.747h61.44c6.827-20.48 20.48-34.133 40.96-34.133s37.547 13.653 37.547 34.133v23.893h-54.613c-13.654 0-23.894 3.414-37.547 6.827-44.373 20.48-68.267 71.68-51.2 112.64 17.067 40.96 71.68 58.027 116.053 37.547 13.654-6.827 23.894-13.654 30.72-23.894l34.134 34.134 51.2-47.787z m-153.6-10.24c-13.654-13.653-10.24-40.96 6.826-61.44 3.414-3.413 10.24-10.24 20.48-10.24h37.547v58.027c0 3.413-3.413 3.413-3.413 6.826-20.48 17.067-47.787 20.48-61.44 6.827zM592.62891 546.133c0 3.414 0 3.414 0 0 0 3.414 0 3.414 0 0zM524.36191 474.453c-27.306 0-51.2 17.067-64.853 51.2-10.24-34.133-34.133-51.2-64.853-51.2-27.307 0-51.2 23.894-64.854 54.614V481.28h-61.44v273.067h64.854v-174.08c0-20.48 20.48-37.547 37.546-37.547 10.24 0 27.307 17.067 27.307 30.72v184.32h64.853V573.44c0-13.653 20.48-30.72 34.134-30.72s27.306 17.067 30.72 30.72v180.907h64.853V546.133c-3.413-40.96-23.893-71.68-68.267-71.68zM596.04191 549.547zM1695.13591 546.133c0 3.414 0 3.414 0 0 0 3.414 0 3.414 0 0z m-194.56-71.68c-27.307 0-51.2 23.894-64.854 54.614V481.28h-64.853v273.067h64.853v-174.08c0-20.48 20.48-37.547 37.547-37.547 10.24 0 27.307 17.067 27.307 30.72v184.32h61.44V539.307c3.413-40.96-34.134-64.854-61.44-64.854z m194.56 75.094z m-471.04-75.094c-61.44 0-112.64 64.854-112.64 143.36 0 78.507 51.2 143.36 112.64 143.36s112.64-64.853 112.64-143.36c0-78.506-51.2-143.36-112.64-143.36z m34.133 194.56c0 17.067-13.653 34.134-34.133 34.134h-3.414c-17.066 0-34.133-13.654-34.133-34.134v-102.4c0-17.066 13.653-34.133 34.133-34.133h3.414c17.066 0 34.133 13.653 34.133 34.133v102.4z m546.133-13.653c-6.826 44.373-27.306 68.267-54.613 68.267-34.133 0-61.44-47.787-61.44-102.4 0-58.027 27.307-102.4 61.44-102.4 27.307 0 47.787 20.48 54.613 64.853h37.547c-6.827-64.853-30.72-98.987-92.16-98.987-54.613 0-98.987 44.374-98.987 136.534 0 98.986 44.374 136.533 98.987 136.533 54.613 0 85.333-30.72 92.16-102.4h-37.547z m163.84-174.08c-34.133 0-58.026 17.067-68.266 44.373v-37.546H1865.80091v262.826h34.134v-153.6c0-40.96 34.133-78.506 64.853-81.92 20.48 0 40.96 23.894 40.96 37.547v208.213h34.133V542.72s-10.24-61.44-71.68-61.44zM237.64191 781.653s174.08 109.227 402.774 112.64c228.693 3.414 310.613-64.853 334.506-71.68 20.48-6.826 13.654 20.48 0 30.72-13.653 13.654-211.626 116.054-365.226 98.987-153.6-17.067-296.96-78.507-372.054-153.6-23.893-27.307 0-17.067 0-17.067z" p-id="3818"></path><path d="M910.06891 798.72s95.573-20.48 102.4 0c6.827 20.48-17.067 85.333-27.307 105.813-6.826 13.654 10.24 17.067 20.48 6.827 6.827-10.24 51.2-64.853 47.787-126.293 0-20.48-13.653-27.307-44.373-27.307-17.067 0-81.92 13.653-102.4 27.307-10.24 3.413-10.24 17.066 3.413 13.653z" p-id="3819"></path></svg>