<?xml version="1.0" standalone="no"?><!DOCTYPE svg PUBLIC "-//W3C//DTD SVG 1.1//EN" "http://www.w3.org/Graphics/SVG/1.1/DTD/svg11.dtd"><svg t="1587175471665" class="icon" viewBox="0 0 1962 1024" version="1.1" xmlns="http://www.w3.org/2000/svg" p-id="2139" xmlns:xlink="http://www.w3.org/1999/xlink" width="30.65625" height="16"><defs><style type="text/css"></style></defs><path d="M363.992536 12.71365v293.700014H222.488876V12.71365H13.522032v771.637721h208.966844v-298.807521h141.50366v298.807521h209.003589v-771.637721zM1545.55361 0a396.217597 396.217597 0 0 0-358.26037 226.898235 266.288503 266.288503 0 0 0-2.278169-23.553323C1157.456581 13.044352 962.268982 12.71365 962.268982 12.71365H615.472944v771.637721h367.446534c89.583465 0 204.373762-91.861633 204.373762-206.688675 0-4.372614-0.110234-8.634994-0.330702-12.823884a396.254342 396.254342 0 0 0 358.591072 227.633127c218.851155 0 396.217597-177.403186 396.217597-396.254342S1764.404765 0 1545.55361 0z" p-id="2140"></path><path d="M1899.257643 56.366298m-46.739199 0a46.739199 46.739199 0 1 0 93.478398 0 46.739199 46.739199 0 1 0-93.478398 0Z" p-id="2141"></path><path d="M1672.579877 1015.916176h61.253337c31.526913 0 48.282475-16.829051 48.282474-36.744653 0-21.311899-16.351371-27.044065-25.684512-30.351084 15.616478-6.430314 18.960241-17.821157 18.960241-25.97847 0-16.939285-13.595522-31.379934-40.198651-31.379934h-62.649634v124.454141zM0 891.535525h22.193771v124.417396H0z m134.044495 0.183723H32.886465v18.188603h39.463757v106.008325h22.230516v-106.008325h39.463757z m619.772069 0h-101.158031v18.188603h39.463758v106.008325h22.230515v-106.008325h39.463758z m179.130185 0h-101.158031v18.188603h39.463758v106.008325h22.230515v-106.008325h39.463758z m-764.141811 18.960241v-19.143964h-19.143965v32.372039z m11.758289 84.549447c0.698148 0.992106 17.380221 24.508684 53.683938 24.508684 38.765609 0 52.838812-23.810535 52.838812-39.794459 0-23.957514-24.912875-31.012487-49.311325-34.723698-35.385101-5.401464-38.324673-12.970863-38.324674-19.621645 0-11.501077 12.750395-23.737046 36.340463-23.737046 24.94962 0 36.193484 15.432754 36.671164 16.094158l13.19133-9.149418c-0.661404-0.955361-16.167647-23.002153-49.862494-23.002153-34.062294 0-52.43462 20.540261-52.434621 39.794459 0 24.214727 24.986364 31.379934 51.993685 35.495335 35.679058 5.438209 35.679058 14.514138 35.679058 18.850008 0 9.55361-9.774078 23.737046-36.744653 23.737046-27.999426 0-40.345629-17.416966-40.455863-17.600689l-13.26482 9.149418z m972.006315-103.693411h22.193771v124.417396h-22.193771z m472.426008 0v51.075068h-61.620783v-51.075068h-22.193771v124.380651h22.193771v-51.075068h61.620783v51.075068h22.193771v-124.380651z m-338.381512 0.183723h-101.158031v18.188603h39.463758v106.008325h22.230515v-106.008325h39.463758z m34.760442 18.960241v-19.143964h-19.143965v32.372039z m11.758289 84.549447c0.698148 0.992106 17.380221 24.508684 53.683938 24.508684 38.765609 0 52.838812-23.810535 52.838812-39.794459 0-23.957514-24.912875-31.012487-49.311325-34.723698-35.385101-5.401464-38.324673-12.970863-38.324673-19.621645 0-11.501077 12.750395-23.737046 36.340462-23.737046 24.94962 0 36.193484 15.432754 36.671164 16.094158l13.19133-9.149418c-0.661404-0.955361-16.167647-23.002153-49.862494-23.002153-34.062294 0-52.43462 20.540261-52.434621 39.794459 0 24.214727 24.986364 31.379934 51.993685 35.495335 35.679058 5.438209 35.679058 14.514138 35.679058 18.850008 0 9.55361-9.774078 23.737046-36.744653 23.737046-27.999426 0-40.345629-17.416966-40.455863-17.600689l-13.26482 9.149418z m-945.550165 20.68724v-124.380651l86.276446 84.071767v-84.071767h18.372326v127.68767l-85.357829-83.924788v80.617769z" p-id="2142"></path><path d="M579.867375 953.927946m-67.683652 0a67.683651 67.683651 0 1 0 135.367303 0 67.683651 67.683651 0 1 0-135.367303 0Z" p-id="2143"></path><path d="M1862.586479 953.927946m-67.683651 0a67.683651 67.683651 0 1 0 135.367303 0 67.683651 67.683651 0 1 0-135.367303 0Z" p-id="2144"></path><path d="M1001.291804 974.72542l-38.434907-83.189895h-20.025836l58.460743 126.58533 58.460744-126.58533h-20.062581z" p-id="2145"></path><path d="M1042.041625 1013.454284m-10.545716 0a10.545716 10.545716 0 1 0 21.091431 0 10.545716 10.545716 0 1 0-21.091431 0Z" p-id="2146"></path><path d="M1951.471796 1013.454284m-10.545716 0a10.545716 10.545716 0 1 0 21.091431 0 10.545716 10.545716 0 1 0-21.091431 0Z" p-id="2147"></path><path d="M916.338166 609.814267H817.568537v-133.199368h105.640879s59.710062 2.278169 59.710062 64.303143-39.022822 68.896225-66.581312 68.896225z m3.270274-291.642314H817.568537V184.972585h108.947898s59.710062 2.278169 59.710061 64.303143-47.841539 68.896225-66.618056 68.896225z m159.765753 75.767476s41.668437-10.472226 73.342328-48.686666c-2.13119 16.718817-3.380508 33.694847-3.380508 51.001579 0 22.74494 2.020956 45.0122 5.695421 66.691546-31.784125-49.348069-75.657241-69.006459-75.657241-69.006459z" fill="#FFFFFF" p-id="2148"></path><path d="M1545.55361 396.254342m-201.360701 0a201.3607 201.3607 0 1 0 402.721401 0 201.3607 201.3607 0 1 0-402.721401 0Z" fill="#FFFFFF" p-id="2149"></path><path d="M1545.55361 396.254342m-152.63729 0a152.63729 152.63729 0 1 0 305.27458 0 152.63729 152.63729 0 1 0-305.27458 0Z" p-id="2150"></path><path d="M1899.220899 56.366298m-39.867949 0a39.867949 39.867949 0 1 0 79.735897 0 39.867949 39.867949 0 1 0-79.735897 0Z" fill="#FFFFFF" p-id="2151"></path><path d="M1886.690972 60.150998h17.821157c8.818717 0 9.737333 5.254485 9.737333 9.774077 0 2.057701 0.220468 10.361992 1.286063 13.669011h9.00244v-1.175829c-2.278169-1.286063-2.645615-2.425147-2.719105-5.474953l-0.440935-9.921056c-0.293957-7.642888-3.380508-9.00244-6.503804-10.288503 3.453997-2.057701 7.569399-4.997273 7.569398-13.007607 0-11.464332-8.965695-14.587627-17.894646-14.587628h-25.133343v54.382087h7.312186v-23.369599z" p-id="2152"></path><path d="M1691.687096 905.939429h34.98091c21.458878 0 29.652935 6.577293 29.652936 18.151858 0 15.212286-11.354098 20.025836-29.836659 20.025837h-34.797187v-38.177695z m0 51.95694h37.957227c15.689967 0 33.364145 3.453997 33.364145 20.944452 0 13.852734-10.141524 22.671451-30.204105 22.671451h-41.117267v-43.615903z" fill="#FFFFFF" p-id="2153"></path><path d="M579.867375 953.927946m-48.135496 0a48.135496 48.135496 0 1 0 96.270992 0 48.135496 48.135496 0 1 0-96.270992 0Z" fill="#FFFFFF" p-id="2154"></path><path d="M1862.586479 953.927946m-48.135496 0a48.135496 48.135496 0 1 0 96.270992 0 48.135496 48.135496 0 1 0-96.270992 0Z" fill="#FFFFFF" p-id="2155"></path><path d="M1886.690972 35.45859h18.372326c3.637721 0 9.774078 0.698148 9.774078 9.039185 0 7.97359-5.695421 9.333142-11.06014 9.333142h-17.04952v-18.372327z" fill="#FFFFFF" p-id="2156"></path></svg>